<?xml version="1.0" encoding="UTF-8"?>
<svg id="_レイヤー_1" data-name="レイヤー_1" xmlns="http://www.w3.org/2000/svg" version="1.1" viewBox="0 0 400 380">
  <!-- Generator: Adobe Illustrator 29.0.1, SVG Export Plug-In . SVG Version: 2.1.0 Build 192)  -->
  <defs>
    <style>
      .st0 {
        fill: #ec3500;
      }

      .st1 {
        fill: #fff;
      }
    </style>
  </defs>
  <path class="st0" d="M257.4,372.5c2.3-7.5-2.5-17.7-2.8-25.5-.9-20,13.1-38,29.3-49.7,16.3-11.7,35.3-19.2,51.6-30.8,49.7-35.1,66.4-110.1,34.7-162.1-9.9-16.3-23.7-29.9-38.6-41.8-32.5-25.8-81.4-42.8-113.9-17-12.4,9.8-20.4,27.5-13.6,41.7,6.8,14.3,32,16.3,37.1,1.3,2.8-8.1-1.1-17-6.1-24-19.5-27.3-56.5-38.8-89.6-33.3-33.1,5.6-62.3,26-84.3,51.5-12.6,14.6-23.4,31.4-28.3,50.1-10.1,38.2,5.8,79.5,31.8,109.2,26,29.7,61,49.8,95.7,68.6,34.7,18.7,68.2,34.8,96.9,61.9Z"/>
  <path class="st1" d="M241,353.5c1.5-5.2.5-10.8-.7-16s-2.3-9.6-2-14.7c.5-9.7,5-18.9,11-26.5,14.2-18.2,35.9-27.2,55.3-38.4,9-5.2,17.7-11.1,25.3-18.3s12.5-13.2,17.6-20.8c10.1-15,17.1-32.3,20.3-50.1,3.3-18,3.1-36.6-1.2-54.4-4.8-19.6-14.9-37.1-28.3-52.1-14.5-16.1-32.1-30.2-51.5-39.9s-38.7-15.2-59-12.7c-20.1,2.5-39.5,13.8-47.2,33.3-3.5,8.9-3.8,20.2,1.6,28.4s12.1,10.5,20,11.3,15.7-1.8,20.3-8.1c6.7-9.2,2.8-21.6-2.9-30.2-11-16.7-28.7-28.1-47.6-33.8s-40.4-5.6-59.9,0-39.9,17.6-56.1,32c-8.2,7.3-15.7,15.3-22.5,23.9s-13.4,18.6-18.2,29.1-7.7,21.3-8.7,32.7c-1,10.7,0,21.5,2.2,32.1,4.6,21.5,15,41.6,28.6,58.7,14.2,17.9,32.2,32.6,51.1,45.4,19.2,12.9,39.6,23.9,60.1,34.8,20.4,10.9,41,21.6,60.1,34.9,9.2,6.4,18,13.4,26.2,21.1s8.8-2,5.3-5.3c-16.4-15.5-35.3-28.1-54.8-39.3-19.5-11.2-39.7-21.2-59.3-32.2-19.3-10.8-38.4-22.5-55.4-36.6s-31-29.7-41.4-48.5c-9.8-17.9-15.9-38.2-15.4-58.7.5-21.6,9.3-41.4,21.9-58.6s27.6-31.5,45-42.7c16.8-10.8,36.2-18.3,56.3-19.3s37.2,3.2,53.1,12.8,14.8,10.7,20.4,17.9,5.9,8.4,7.3,13.2,1,4.8.7,7.2-.5,2.2-.9,3.2.2-.5,0,0-.2.3-.2.5c-.2.4-.4.8-.7,1.2s-.3.4-.4.6c0,0,.3-.4,0,0s-.5.6-.8.9-.5.5-.7.7-.3.3-.5.4c.3-.2.2-.2,0,0-.6.4-1.3.9-2,1.2s-1,.5-.8.4-.7.3-1,.3c-.7.2-1.4.4-2.2.6s-1.2.2-.9.2-.8,0-1.1,0c-.8,0-1.7,0-2.5,0s-.8,0-1.3,0-.4,0-.5,0c-.7,0,.9.2-.3,0-1.7-.3-3.4-.7-5-1.3s-.5-.2-.7-.3c0,0,.4.2,0,0s-.8-.4-1.2-.6c-.8-.4-1.5-.8-2.2-1.3s-.9-.7-.8-.6-.6-.5-.7-.6c-.7-.6-1.3-1.3-1.9-1.9s-.2-.3-.3-.4c.1.1.3.5,0-.1s-.4-.6-.6-.9c-.5-.7-.9-1.5-1.2-2.3-3.5-8.3-1.2-17.8,3.4-25.3s12.2-13.8,20.6-17.7c16.9-7.9,36.6-6,53.9-.4,19.1,6.1,36.3,17,51.4,30,15.5,13.4,29.4,29.3,37.5,48.3,6.6,15.5,9.3,32.6,8.6,49.5-.7,16.9-4.9,34-12.1,49.3s-17.9,29.6-31.3,40.6c-17,13.9-38.4,21.7-56.4,34.4s-31.3,29.2-32,50.3.9,9.6,2,14.4,2.2,9.1,1,13.3,5.9,6.6,7.2,2Z"/>
</svg>